<?xml version="1.0" encoding="iso-8859-1"?>
<!-- Generator: Adobe Illustrator 19.0.0, SVG Export Plug-In . SVG Version: 6.00 Build 0)  -->
<svg version="1.1" id="Layer_1" xmlns="http://www.w3.org/2000/svg" xmlns:xlink="http://www.w3.org/1999/xlink" x="0px" y="0px"
	 viewBox="0 0 512 512" style="enable-background:new 0 0 512 512;" xml:space="preserve">
<path style="fill:#C2185B;" d="M493.599,351.445l-31.35-247.096C415.642,41.067,340.621,0,256,0C114.616,0,0,114.616,0,256
	c0,137.751,108.804,250.073,245.159,255.755L493.599,351.445z"/>
<g>
	<path style="fill:#880E4F;" d="M493.599,351.445l-200.035-55.652L93.529,343.62l111.778,111.778l-6.501,10.004l46.353,46.353
		c3.596,0.15,7.208,0.244,10.84,0.245C363.646,512,455.759,445.553,493.599,351.445z"/>
	<polygon style="fill:#880E4F;" points="222.053,302.71 259.897,264.866 245.958,247.324 282,211.282 205.755,115.321 
		126.92,149.95 161.059,184.088 115.79,214.508 152.329,251.047 104.659,279.064 190.92,365.325 237.794,318.451 	"/>
</g>
<g>
	<path style="fill:#FF8A65;" d="M219.27,473.879c15.981,0,28.939-12.957,28.939-28.939c0.001-51.553,41.943-93.496,93.496-93.496
		v-57.878c-83.466,0-151.373,67.906-151.374,151.374C190.33,460.922,203.287,473.879,219.27,473.879z"/>
	<path style="fill:#FF8A65;" d="M134.678,222.332h48.974v-53.426h-48.974c-14.753,0-26.713,11.96-26.713,26.713
		C107.965,210.372,119.926,222.332,134.678,222.332z"/>
</g>
<path style="fill:#FFAB91;" d="M123.548,286.888h48.974v-53.426h-48.974c-14.753,0-26.713,11.96-26.713,26.713
	S108.796,286.888,123.548,286.888z"/>
<path style="fill:#FF8A65;" d="M145.809,157.775h26.713l-22.261-53.426h-4.452c-14.753,0-26.713,11.96-26.713,26.713
	C119.096,145.815,131.056,157.775,145.809,157.775z"/>
<path style="fill:#FFAB91;" d="M112.417,351.445h37.843l42.296-53.426h-80.139c-14.753,0-26.713,11.96-26.713,26.713
	S97.665,351.445,112.417,351.445z"/>
<polygon style="fill:#FF7043;" points="361.739,104.349 150.261,104.349 150.261,227.897 384,250.158 "/>
<polygon style="fill:#FF8A65;" points="361.739,351.445 384,227.897 150.261,227.897 150.261,351.445 "/>
<path style="fill:#00BCD4;" d="M462.249,104.349h-43.745l-22.261,145.809l114.3-21.515
	C505.632,182.424,488.422,139.886,462.249,104.349z"/>
<path style="fill:#0097A7;" d="M418.504,351.445h75.095C505.46,321.948,512,289.74,512,256c0-9.499-0.534-18.873-1.542-28.103
	H396.243L418.504,351.445z"/>
<polygon style="fill:#FFFFFF;" points="418.504,227.897 418.504,104.349 361.739,104.349 361.739,227.897 391.791,250.158 "/>
<rect x="361.739" y="227.896" style="fill:#E0F7FA;" width="56.765" height="123.548"/>
<g>
</g>
<g>
</g>
<g>
</g>
<g>
</g>
<g>
</g>
<g>
</g>
<g>
</g>
<g>
</g>
<g>
</g>
<g>
</g>
<g>
</g>
<g>
</g>
<g>
</g>
<g>
</g>
<g>
</g>
</svg>
