<?xml version="1.0" encoding="iso-8859-1"?>
<!-- Generator: Adobe Illustrator 19.0.0, SVG Export Plug-In . SVG Version: 6.00 Build 0)  -->
<svg version="1.1" id="Layer_1" xmlns="http://www.w3.org/2000/svg" xmlns:xlink="http://www.w3.org/1999/xlink" x="0px" y="0px"
	 viewBox="0 0 512 512" style="enable-background:new 0 0 512 512;" xml:space="preserve">
<circle style="fill:#31BAFD;" cx="256" cy="256" r="256"/>
<path style="fill:#2B9ED8;" d="M507.014,306.466l-173.851-174.47l-95.263,182.905l-19.068,83.446l104.829,104.598
	C416.311,477.617,488.002,401.558,507.014,306.466z"/>
<path style="fill:#E6F3FF;" d="M361.16,203.421c0-58.592-47.919-105.991-106.705-105.148
	c-56.21,0.807-102.359,46.592-103.586,102.795c-0.724,33.108,13.869,62.814,37.171,82.565c9.63,8.163,15.382,19.99,15.382,32.615
	v44.911h105.158v-44.922c0-12.448,5.472-24.281,15.005-32.285C346.552,264.668,361.16,235.758,361.16,203.421z"/>
<path style="fill:#CFDBE6;" d="M256.576,98.297v262.861h52.003v-44.922c0-12.448,5.472-24.281,15.005-32.285
	c22.966-19.284,37.574-48.195,37.574-80.531C361.16,145.539,314.385,98.611,256.576,98.297z"/>
<polygon style="fill:#FFC61B;" points="287.463,361.158 277.12,361.158 277.12,234.882 234.884,234.882 234.884,361.158 
	224.54,361.158 224.54,224.539 287.463,224.539 "/>
<polygon style="fill:#F4A200;" points="256.576,224.539 256.576,234.882 277.12,234.882 277.12,361.158 287.463,361.158 
	287.463,224.539 "/>
<path style="fill:#324A5E;" d="M256.002,413.737L256.002,413.737c-29.039,0-52.579-23.54-52.579-52.579v-26.29h105.158v26.29
	C308.581,390.197,285.039,413.737,256.002,413.737z"/>
<path style="fill:#2B3B4E;" d="M256.576,334.869v78.855c28.772-0.31,52.003-23.719,52.003-52.565v-26.29H256.576z"/>
<g>
</g>
<g>
</g>
<g>
</g>
<g>
</g>
<g>
</g>
<g>
</g>
<g>
</g>
<g>
</g>
<g>
</g>
<g>
</g>
<g>
</g>
<g>
</g>
<g>
</g>
<g>
</g>
<g>
</g>
</svg>
