<?xml version="1.0" encoding="iso-8859-1"?>
<!-- Generator: Adobe Illustrator 19.0.0, SVG Export Plug-In . SVG Version: 6.00 Build 0)  -->
<svg version="1.1" id="Capa_1" xmlns="http://www.w3.org/2000/svg" xmlns:xlink="http://www.w3.org/1999/xlink" x="0px" y="0px"
	 viewBox="0 0 512 512" style="enable-background:new 0 0 512 512;" xml:space="preserve">
<circle style="fill:#85E374;" cx="256" cy="256" r="256"/>
<path style="fill:#13C37B;" d="M504.51,317.643L270.194,83.327L117.128,246.648l112.415,112.415L115.666,412.37l95.752,95.752
	C225.897,510.666,240.792,512,256,512C376.13,512,476.917,429.248,504.51,317.643z"/>
<path style="fill:#FF4682;" d="M390.309,235.466c-14.752-0.32-28.28,4.872-38.677,13.656c-5,4.224-12.641,0.741-12.641-5.804
	v-68.772h-63.434c-6.639,0-10.186-7.922-5.673-12.791c10.332-11.148,16.338-26.363,15.345-42.977
	c-1.717-28.729-24.721-52.121-53.421-54.275c-34.059-2.556-62.485,24.321-62.485,57.838c0,15.159,5.816,28.958,15.337,39.291
	c4.553,4.941,1.158,12.915-5.561,12.915h-63.432v67.583c0,6.41,7.41,9.989,12.418,5.987c10.534-8.418,24.063-13.242,38.738-12.607
	c29.934,1.296,54.241,25.731,55.387,55.672c1.266,33.074-25.17,60.285-57.963,60.285c-13.704,0-26.292-4.756-36.215-12.704
	c-4.978-3.987-12.366-0.345-12.366,6.033v67.578H338.99v-68.773c0-6.489,7.601-10.079,12.549-5.881
	c10.107,8.574,23.188,13.748,37.481,13.748c32.036,0,58.006-25.97,58.006-58.006C447.028,261.716,422.043,236.154,390.309,235.466z"
	/>
<path style="fill:#C42364;" d="M390.309,235.466c-14.751-0.32-28.279,4.872-38.677,13.656c-5,4.224-12.641,0.741-12.641-5.804
	v-68.772h-63.434c-6.639,0-10.187-7.922-5.674-12.791c10.333-11.148,16.338-26.363,15.345-42.977
	c-1.195-19.998-12.711-37.4-29.276-46.863v340.457h83.038v-68.773c0-6.489,7.601-10.079,12.549-5.881
	c10.107,8.574,23.188,13.748,37.481,13.748c32.036,0,58.006-25.97,58.006-58.006C447.028,261.716,422.043,236.154,390.309,235.466z"
	/>
<g>
</g>
<g>
</g>
<g>
</g>
<g>
</g>
<g>
</g>
<g>
</g>
<g>
</g>
<g>
</g>
<g>
</g>
<g>
</g>
<g>
</g>
<g>
</g>
<g>
</g>
<g>
</g>
<g>
</g>
</svg>
