<?xml version="1.0" encoding="iso-8859-1"?>
<!-- Generator: Adobe Illustrator 19.0.0, SVG Export Plug-In . SVG Version: 6.00 Build 0)  -->
<svg version="1.1" id="Layer_1" xmlns="http://www.w3.org/2000/svg" xmlns:xlink="http://www.w3.org/1999/xlink" x="0px" y="0px"
	 viewBox="0 0 512 512" style="enable-background:new 0 0 512 512;" xml:space="preserve">
<path style="fill:#FF5722;" d="M504.027,192.375C475.738,81.771,375.421,0,256,0C114.616,0,0,114.616,0,256
	c0,121.305,84.374,222.899,197.636,249.311L504.027,192.375z"/>
<g>
	<path style="fill:#D84315;" d="M512,256c0-21.965-2.77-43.282-7.974-63.625l-69.939-69.94L72.111,379.785l125.526,125.526
		C216.383,509.683,235.921,512,256,512C397.385,512,512,397.385,512,256z"/>
	
		<rect x="226.75" y="125.332" transform="matrix(-0.7071 0.7071 -0.7071 -0.7071 634.6964 148.9867)" style="fill:#D84315;" width="119.484" height="161.223"/>
</g>
<path style="fill:#FBC02D;" d="M256,100.174l-11.13,22.261L256,144.696c12.295,0,22.261-9.966,22.261-22.261
	S268.295,100.174,256,100.174z"/>
<path style="fill:#FFEB3B;" d="M233.739,122.435c0,12.295,9.966,22.261,22.261,22.261v-44.522
	C243.706,100.174,233.739,110.14,233.739,122.435z"/>
<circle style="fill:#FFF59D;" cx="100.174" cy="244.87" r="33.391"/>
<polygon style="fill:#F57F17;" points="345.047,130.787 267.13,189.217 422.958,189.217 "/>
<polygon style="fill:#F9A825;" points="166.957,130.787 89.04,189.217 244.867,189.217 "/>
<circle style="fill:#FFEB3B;" cx="411.826" cy="244.87" r="33.391"/>
<polygon style="fill:#FBC02D;" points="434.087,122.435 345.041,189.217 256,122.439 233.739,345.043 416.278,322.783 "/>
<polygon style="fill:#FFEB3B;" points="255.994,122.435 166.953,189.217 77.913,122.435 95.722,322.783 256,345.043 "/>
<path style="fill:#FCE4EC;" d="M416.278,322.783H256l-45.958,33.391L256,389.565h160.278c18.442,0,33.391-14.95,33.391-33.391
	C449.67,337.733,434.72,322.783,416.278,322.783z"/>
<path style="fill:#FFFFFF;" d="M95.722,322.783c-18.442,0-33.391,14.95-33.391,33.391c0,18.441,14.949,33.391,33.391,33.391H256
	v-66.783H95.722z"/>
<path style="fill:#E91E63;" d="M256,189.217l-22.261,69.379L256,300.522c30.736,0,55.652-24.917,55.652-55.652
	S286.736,189.217,256,189.217z"/>
<g>
	<path style="fill:#EC407A;" d="M200.348,244.87c0,30.736,24.917,55.652,55.652,55.652V189.217
		C225.264,189.217,200.348,214.134,200.348,244.87z"/>
	<path style="fill:#EC407A;" d="M256,211.478l-22.261,33.391L256,278.261c18.442,0,33.391-14.95,33.391-33.391
		S274.442,211.478,256,211.478z"/>
</g>
<path style="fill:#F06292;" d="M222.609,244.87c0,18.441,14.949,33.391,33.391,33.391v-66.783
	C237.559,211.478,222.609,226.429,222.609,244.87z"/>
<g>
</g>
<g>
</g>
<g>
</g>
<g>
</g>
<g>
</g>
<g>
</g>
<g>
</g>
<g>
</g>
<g>
</g>
<g>
</g>
<g>
</g>
<g>
</g>
<g>
</g>
<g>
</g>
<g>
</g>
</svg>
