<?xml version="1.0" encoding="iso-8859-1"?>
<!-- Generator: Adobe Illustrator 19.0.0, SVG Export Plug-In . SVG Version: 6.00 Build 0)  -->
<svg version="1.1" id="Layer_1" xmlns="http://www.w3.org/2000/svg" xmlns:xlink="http://www.w3.org/1999/xlink" x="0px" y="0px"
	 viewBox="0 0 512 512" style="enable-background:new 0 0 512 512;" xml:space="preserve">
<path style="fill:#C2185B;" d="M511.755,245.159C506.073,108.804,393.751,0,256,0C148.354,0,56.241,66.446,18.401,160.555
	l31.35,247.096L511.755,245.159z"/>
<path style="fill:#880E4F;" d="M256,512c141.384,0,256-114.616,256-256c0-3.633-0.095-7.244-0.245-10.84L313.193,46.598
	L49.751,407.651C96.36,470.932,171.379,512,256,512z"/>
<path style="fill:#FFAB91;" d="M292.73,38.121c-15.981,0-28.939,12.957-28.939,28.939c-0.001,51.553-41.943,93.496-93.496,93.496
	v57.878c83.466,0,151.373-67.906,151.374-151.374C321.67,51.078,308.713,38.121,292.73,38.121z"/>
<path style="fill:#FF7043;" d="M377.322,289.668h-48.974v53.426h48.974c14.753,0,26.713-11.96,26.713-26.713
	S392.075,289.668,377.322,289.668z"/>
<path style="fill:#FF8A65;" d="M388.452,225.112h-48.974v53.426h48.974c14.753,0,26.713-11.96,26.713-26.713
	S403.206,225.112,388.452,225.112z"/>
<path style="fill:#FF7043;" d="M366.191,354.225h-26.713l22.261,53.426h4.452c14.753,0,26.713-11.96,26.713-26.713
	S380.945,354.225,366.191,354.225z"/>
<g>
	<path style="fill:#FF8A65;" d="M399.583,160.555h-37.843l-42.296,53.426h80.139c14.753,0,26.713-11.96,26.713-26.713
		C426.296,172.515,414.336,160.555,399.583,160.555z"/>
	<polygon style="fill:#FF8A65;" points="150.261,407.651 361.739,407.651 361.739,284.103 128,261.842 	"/>
</g>
<polygon style="fill:#FFAB91;" points="150.261,160.555 128,284.103 361.739,284.103 361.739,160.555 "/>
<path style="fill:#0097A7;" d="M49.751,407.651h43.745l22.261-145.809l-114.3,21.515C6.368,329.577,23.578,372.114,49.751,407.651z"
	/>
<path style="fill:#00BCD4;" d="M93.496,160.555H18.401C6.54,190.052,0,222.261,0,256c0,9.499,0.534,18.873,1.542,28.103h114.215
	L93.496,160.555z"/>
<polygon style="fill:#E0F7FA;" points="93.496,284.103 93.496,407.651 150.261,407.651 150.261,284.103 120.209,261.842 "/>
<rect x="93.496" y="160.557" style="fill:#FFFFFF;" width="56.765" height="123.548"/>
<g>
</g>
<g>
</g>
<g>
</g>
<g>
</g>
<g>
</g>
<g>
</g>
<g>
</g>
<g>
</g>
<g>
</g>
<g>
</g>
<g>
</g>
<g>
</g>
<g>
</g>
<g>
</g>
<g>
</g>
</svg>
